<?xml version="1.0" encoding="UTF-8"?>
<svg xmlns="http://www.w3.org/2000/svg" width="16" height="16" viewBox="0 0 16 16">
  <!-- Symbolic icons must be a single colour; GTK recolors them to match the
       theme (dark/light, selected, ...). -->
  <g fill="#241f31">
    <path d="M1.5 2h4.8l1.4 2h6.8A1.5 1.5 0 0 1 16 5.5v7A1.5 1.5 0 0 1 14.5 14h-13A1.5 1.5 0 0 1 0 12.5v-9A1.5 1.5 0 0 1 1.5 2zm0 1A.5.5 0 0 0 1 3.5v9a.5.5 0 0 0 .5.5h13a.5.5 0 0 0 .5-.5v-7a.5.5 0 0 0-.5-.5H7.4L6 3z"/>
    <path d="M7.5 5v3H5.6L8.8 11.6 12 8h-1.9V5z"/>
  </g>
</svg>
